<?xml version="1.0" encoding="utf-8"?>
<svg width="1424px" height="1424px" viewBox="0 0 1424 1424" version="1.1" xmlns:xlink="http://www.w3.org/1999/xlink" xmlns="http://www.w3.org/2000/svg">
  <defs>
    <path d="M1424 0L1424 0L1424 1424L0 1424L0 0L1424 0Z" id="path_1" />
    <clipPath id="clip_1">
      <use xlink:href="#path_1" clip-rule="evenodd" fill-rule="evenodd" />
    </clipPath>
  </defs>
  <g id="Vision logo white">
    <path d="M1424 0L1424 0L1424 1424L0 1424L0 0L1424 0Z" id="Vision-logo-white" fill="none" stroke="none" />
    <path d="M658.646 604.764L661.302 602.046C669.7 593.003 682.668 579.079 700.885 565.599C729.414 545.128 759.487 532.591 792.092 527.099C808.951 523.881 825.871 523.049 843.038 524.103C850.016 524.547 857.055 525.324 864.095 526.267C864.398 526.267 864.682 526.333 864.978 526.401C865.287 526.472 865.602 526.544 865.948 526.544C867.516 526.857 869.041 527.15 870.542 527.438L870.548 527.44L870.56 527.442C873.308 527.971 876.001 528.487 878.792 529.096C878.823 529.105 878.854 529.115 878.878 529.126C878.928 529.144 878.971 529.163 879.021 529.183C879.051 529.197 879.088 529.211 879.119 529.224C879.144 529.235 879.175 529.245 879.2 529.255C879.267 529.279 879.335 529.301 879.409 529.318C879.687 529.389 879.91 529.414 880.113 529.438L880.262 529.455L880.367 529.469L880.459 529.484L880.83 527.82C880.984 527.016 881.157 526.197 881.324 525.379C881.49 524.561 881.663 523.743 881.818 522.938L903.061 417.591L945.422 196.078L1176.25 196.078L1424 1226.53L735.614 1226.53L874.266 540.729L874.266 540.673C869.572 539.175 864.015 537.733 857.716 536.679C851.047 535.569 845.057 535.071 839.931 534.959C813.465 666.688 786.942 798.417 760.414 930.143L760.401 930.205L760.333 930.551L753.664 990.024L742.116 990.024L732.236 930.551L706.732 818.435L668.94 651.679C656.034 681.414 643.499 714.422 632.445 750.592C615.648 805.679 605.768 856.603 600.025 901.371C601.384 909.196 603.483 921.07 606.447 935.434C610.248 954.15 613.899 968.99 615.823 976.815L615.825 976.822C616.369 979.034 616.775 980.685 617.007 981.698C625.782 1019.97 634.52 1059.1 643.27 1098.26C652.885 1141.31 662.518 1184.43 672.226 1226.53L247.749 1226.53L0 196.078L438.686 196.078C467.524 323.45 496.609 450.765 525.694 577.859C539.218 636.718 552.742 695.411 566.265 754.049C566.574 756.101 566.883 757.765 567.439 759.707C569.678 766.993 570.832 772.912 572.197 779.919C573.015 784.117 573.908 788.706 575.158 794.212C575.862 797.095 576.764 801.024 577.865 805.817C578.502 808.588 579.205 811.649 579.974 814.962C592.263 752.606 605.354 705.23 613.691 682.208C621.163 661.626 630.981 643.764 631.908 642.1C638.886 629.451 647.222 617.469 658.091 605.486L658.646 604.764L658.646 604.764ZM654.322 585.514C662.783 576.805 674.145 565.821 688.904 554.892C719.471 532.868 753.126 518.722 788.571 512.62C807.591 509.402 826.487 508.404 845.877 509.624L908.061 196.078L565.832 196.078L638.452 516.059L649.135 562.714L654.322 585.514L654.322 585.514Z" id="Shape" fill="#F8F8FF" fill-rule="evenodd" stroke="none" clip-path="url(#clip_1)" />
  </g>
</svg>