<?xml version="1.0" encoding="utf-8"?>
<svg width="1024px" height="1024px" viewBox="0 0 1024 1024" version="1.1" xmlns:xlink="http://www.w3.org/1999/xlink" xmlns="http://www.w3.org/2000/svg">
  <defs>
    <path d="M556.603 0L556.603 0L556.603 556.603L0 556.603L0 0L556.603 0Z" id="path_1" />
    <clipPath id="clip_1">
      <use xlink:href="#path_1" clip-rule="evenodd" fill-rule="evenodd" />
    </clipPath>
  </defs>
  <g id="Group">
    <path d="M0 0L1024 0L1024 1024L0 1024L0 0Z" id="Rectangle" fill="#000000" fill-rule="evenodd" stroke="none" />
    <g id="Vision logo white">
      <path d="M556.603 0L556.603 0L556.603 556.603L0 556.603L0 0L556.603 0Z" id="Vision-logo-white" fill="none" stroke="none" transform="translate(233.8857 233.88588)" />
      <path d="M257.447 236.386L258.485 235.324C261.768 231.789 266.836 226.347 273.957 221.077C285.108 213.076 296.863 208.176 309.608 206.029C316.197 204.771 322.811 204.446 329.521 204.858C332.248 205.031 335 205.335 337.751 205.704C337.87 205.704 337.981 205.729 338.097 205.756C338.217 205.784 338.34 205.812 338.476 205.812C339.089 205.934 339.685 206.049 340.271 206.161L340.274 206.162L340.279 206.163C341.353 206.37 342.405 206.571 343.496 206.81C343.508 206.813 343.52 206.817 343.53 206.821C343.549 206.828 343.566 206.836 343.585 206.844C343.597 206.849 343.612 206.854 343.624 206.86C343.634 206.864 343.646 206.868 343.655 206.872C343.682 206.881 343.708 206.89 343.737 206.896C343.846 206.924 343.933 206.934 344.013 206.943L344.071 206.95L344.112 206.955L344.148 206.961L344.293 206.311C344.353 205.996 344.421 205.676 344.486 205.357C344.551 205.037 344.618 204.717 344.679 204.403L352.982 163.225L369.54 76.6418L459.765 76.6418L556.603 479.418L287.532 479.418L341.727 211.356L341.727 211.335C339.892 210.749 337.72 210.186 335.258 209.773C332.651 209.34 330.31 209.145 328.307 209.101C317.961 260.591 307.594 312.08 297.225 363.568L297.22 363.592L297.194 363.728L294.587 386.974L290.073 386.974L286.211 363.728L276.243 319.904L261.471 254.724C256.426 266.347 251.526 279.248 247.206 293.386C240.64 314.918 236.778 334.823 234.534 352.322C235.065 355.38 235.885 360.021 237.044 365.636C238.53 372.952 239.957 378.752 240.709 381.811L240.709 381.813C240.922 382.678 241.081 383.323 241.171 383.72C244.601 398.679 248.017 413.972 251.437 429.28C255.195 446.109 258.96 462.961 262.755 479.418L96.8383 479.418L0 76.6418L171.47 76.6419C182.743 126.428 194.111 176.192 205.48 225.87C210.766 248.876 216.052 271.817 221.338 294.737C221.459 295.54 221.579 296.19 221.796 296.949C222.672 299.797 223.123 302.11 223.656 304.85C223.976 306.49 224.325 308.284 224.814 310.436C225.089 311.563 225.442 313.099 225.872 314.972C226.121 316.055 226.396 317.252 226.696 318.547C231.5 294.174 236.617 275.656 239.875 266.657C242.796 258.612 246.634 251.63 246.996 250.98C249.723 246.036 252.982 241.352 257.23 236.668L257.447 236.386L257.447 236.386ZM255.757 228.862C259.064 225.458 263.505 221.164 269.274 216.893C281.222 208.284 294.377 202.755 308.232 200.369C315.666 199.112 323.052 198.721 330.631 199.199L354.937 76.6418L221.169 76.6419L249.554 201.714L253.73 219.95L255.757 228.862L255.757 228.862Z" id="Shape" fill="#F8F8FF" fill-rule="evenodd" stroke="none" clip-path="url(#clip_1)" transform="translate(233.8857 233.88588)" />
    </g>
  </g>
</svg>