<?xml version="1.0" encoding="utf-8"?>
<svg width="2732px" height="2732px" viewBox="0 0 2732 2732" version="1.1" xmlns:xlink="http://www.w3.org/1999/xlink" xmlns="http://www.w3.org/2000/svg">
  <defs>
    <path d="M1931.61 0L1931.61 0L1931.61 1931.61L0 1931.61L0 0L1931.61 0Z" id="path_1" />
    <clipPath id="clip_1">
      <use xlink:href="#path_1" clip-rule="evenodd" fill-rule="evenodd" />
    </clipPath>
  </defs>
  <g id="Group">
    <path d="M0 0L2732 0L2732 2732L0 2732L0 0Z" id="Rectangle" fill="#000000" fill-rule="evenodd" stroke="none" />
    <g id="Vision logo white">
      <path d="M1931.61 0L1931.61 0L1931.61 1931.61L0 1931.61L0 0L1931.61 0Z" id="Vision-logo-white" fill="none" stroke="none" transform="translate(400.1953 400.1953)" />
      <path d="M893.432 820.343L897.034 816.656C908.426 804.39 926.016 785.502 950.727 767.216C989.426 739.449 1030.22 722.442 1074.45 714.993C1097.31 710.628 1120.27 709.499 1143.55 710.929C1153.02 711.531 1162.57 712.585 1172.12 713.863C1172.53 713.863 1172.91 713.953 1173.31 714.045C1173.73 714.142 1174.16 714.24 1174.63 714.24C1176.76 714.664 1178.83 715.061 1180.86 715.452L1180.87 715.455L1180.89 715.457C1184.61 716.175 1188.27 716.875 1192.05 717.702C1192.09 717.713 1192.14 717.728 1192.17 717.743C1192.24 717.766 1192.3 717.792 1192.36 717.82C1192.4 717.838 1192.45 717.857 1192.5 717.875C1192.53 717.889 1192.57 717.904 1192.61 717.917C1192.7 717.95 1192.79 717.979 1192.89 718.003C1193.27 718.098 1193.57 718.133 1193.85 718.165L1194.05 718.189L1194.19 718.207L1194.31 718.228L1194.82 715.97C1195.03 714.88 1195.26 713.769 1195.49 712.659C1195.71 711.549 1195.95 710.44 1196.16 709.348L1224.97 566.448L1282.43 265.974L1595.55 265.974L1931.61 1663.75L997.836 1663.75L1185.91 733.481L1185.91 733.405C1179.55 731.374 1172.01 729.418 1163.46 727.987C1154.42 726.482 1146.29 725.806 1139.34 725.655C1103.44 904.34 1067.46 1083.03 1031.48 1261.71L1031.46 1261.79L1031.37 1262.26L1022.32 1342.94L1006.66 1342.94L993.254 1262.26L958.659 1110.18L907.396 883.982C889.889 924.316 872.885 969.09 857.891 1018.15C835.107 1092.88 821.705 1161.95 813.914 1222.68C815.757 1233.29 818.605 1249.4 822.626 1268.89C827.782 1294.27 832.734 1314.4 835.344 1325.02L835.346 1325.03C836.084 1328.03 836.636 1330.27 836.95 1331.64C848.853 1383.56 860.705 1436.63 872.575 1489.75C885.617 1548.16 898.684 1606.64 911.852 1663.75L336.063 1663.75L0 265.974L595.063 265.974C634.181 438.749 673.634 611.448 713.087 783.846C731.432 863.687 749.776 943.302 768.12 1022.84C768.539 1025.63 768.958 1027.88 769.712 1030.52C772.75 1040.4 774.315 1048.43 776.166 1057.94C777.276 1063.63 778.488 1069.85 780.182 1077.32C781.138 1081.23 782.362 1086.56 783.856 1093.06C784.719 1096.82 785.672 1100.97 786.716 1105.47C803.385 1020.89 821.143 956.622 832.451 925.392C842.587 897.475 855.906 873.244 857.162 870.987C866.627 853.83 877.936 837.576 892.678 821.321L893.432 820.343L893.432 820.343ZM887.568 794.231C899.044 782.417 914.456 767.517 934.476 752.693C975.94 722.818 1021.59 703.629 1069.67 695.352C1095.47 690.988 1121.1 689.633 1147.41 691.289L1231.76 265.974L767.533 265.974L866.041 700.018L880.532 763.303L887.568 794.231L887.568 794.231Z" id="Shape" fill="#F8F8FF" fill-rule="evenodd" stroke="none" clip-path="url(#clip_1)" transform="translate(400.1953 400.1953)" />
    </g>
  </g>
</svg>